{"title":"The.List.2013.STV.DVDRip.XviD-EXViD [PublicHash]","uid":8688267,"size":740996508,"categoryP":"video","categoryS":"movies","magnet":"?xt=urn:btih:c96924d99f43774a92ca343e1e22d584603b173c&amp;dn=The.List.2013.STV.DVDRip.XviD-EXViD+%5BPublicHash%5D&amp;tr=udp%3A%2F%2Ftracker.openbittorrent.com%3A80&amp;tr=udp%3A%2F%2Fopen.demonii.com%3A1337&amp;tr=udp%3A%2F%2Ftracker.coppersurfer.tk%3A6969&amp;tr=udp%3A%2F%2Fexodus.desync.com%3A6969","seeders":1,"leechers":0,"uploader":"R0thschild","files":4,"time":1373843045,"description":"              ***********************************************\n\n                PublicHash - Largest Bittorrent Community\n      \n                         &lt;a href=&quot; http://publichash.com/&quot; rel=&quot;nofollow&quot; target=&quot;_NEW&quot;&gt; http://publichash.com/&lt;/a&gt;\n\n          Crystal Clean files - Fast Speed! No Virus! No Fake! Enjoy!\n    \n              *********************************************** &lt;a href=&quot;\nhttp://www.imdb.com/title/tt2150511/&quot; rel=&quot;nofollow&quot; target=&quot;_NEW&quot;&gt;\nhttp://www.imdb.com/title/tt2150511/&lt;/a&gt;\nSubtitles: NL\nDate: 2013.07\nDirector: Klaus H ttmann\n\nGenres: Thriller\n\nPlot:\nWritten and directed by Palme D'Or nominee Klaus Huttmann, THE LIST is a universal and\npsychological thriller at the edge of our time. Christopher Cowin is in his mid 30s, a\nfamily man who owns a small advertising agency. A court case he had recently lost has shown\nhim the rich and powerful always win! That is why Christopher creates the website THE LIST\nOn this site, users can label corrupt individuals in public life and award them points as to\nhow much of a menace they are. The result is a list of politicians, CEOs and bankers\nThe website quickly becomes a worldwide success but suddenly, whoever is number one on THE\nLIST appears murdered and public opinion starts to turn against Christopher\n\nCast:\nSienna Guillory ... Alison Corwin\nClive Russell ... Peter\nRebecca Ferdinando ... Reporter\nMingus Johnston ... Henry\nNigel Planer ... Ted Rove\nBill Paterson ... Reg Troughton\nLouise Delamere ... Sarah\nAnthony Flanagan ... Christopher Corwin\nRita Davies ... Martha Rove\nAndrew Havill ... Vickery\nChristopher Dane ... Smith\nCharles Dale ... Richard Van Meeren\nSeamus O'Neill ... Jeff Bowler\nCharles De'Ath ... Brown\nRichard Lee O'Donnell ... Tom\n\nStats:\nFormat: AVI\nFormat/Info: Audio Video Interleave\nFile size: 700 MiB\nDuration: 1h 26mn\nOverall bit rate: 1 131 Kbps\nWriting application: VirtualDubMod 1.5.10.2 (build 2540/release)\nWriting library: VirtualDubMod build 2540/release\n\nVideo\nID: 0\nFormat: MPEG-4 Visual\nFormat profile: Advanced Simple@L5\nFormat settings, BVOP: Yes\nFormat settings, QPel: No\nFormat settings, GMC: No warppoints\nFormat settings, Matrix: Default (H.263)\nMuxing mode: Packed bitstream\nCodec ID: XVID\nCodec ID/Hint: XviD\nDuration: 1h 26mn\nBit rate: 674 Kbps\nWidth: 640 pixels\nHeight: 272 pixels\nDisplay aspect ratio: 2.35:1\nFrame rate: 25.000 fps\nColor space: YUV\nChroma subsampling: 4:2:0\nBit depth: 8 bits\nScan type: Progressive\nBits/(Pixel*Frame): 0.155\nStream size: 417 MiB (60%)\nWriting library: XviD 64\n\nAudio\nID: 1\nFormat: AC-3\nFormat/Info: Audio Coding 3\nMode extension: CM (complete main)\nCodec ID: 2000\nDuration: 1h 26mn\nBit rate mode: Constant\nBit rate: 448 Kbps\nChannel(s): 6 channels\nChannel positions: Front: L C R, Side: L R, LFE\nSampling rate: 48.0 KHz\nBit depth: 16 bits\nStream size: 277 MiB (40%)\nAlignment: Split accross interleaves\nInterleave, duration: 40 ms (1.00 video frame)\nInterleave, preload duration: 500 ms","torrent":{"xt":"urn:btih:c96924d99f43774a92ca343e1e22d584603b173c","amp;dn":"The.List.2013.STV.DVDRip.XviD-EXViD+%5BPublicHash%5D","amp;tr":["udp%3A%2F%2Ftracker.openbittorrent.com%3A80","udp%3A%2F%2Fopen.demonii.com%3A1337","udp%3A%2F%2Ftracker.coppersurfer.tk%3A6969","udp%3A%2F%2Fexodus.desync.com%3A6969"],"infoHash":"c96924d99f43774a92ca343e1e22d584603b173c","infoHashBuffer":{"type":"Buffer","data":[201,105,36,217,159,67,119,74,146,202,52,62,30,34,213,132,96,59,23,60]},"announce":[],"urlList":[]}}